<svg xmlns="http://www.w3.org/2000/svg" width="1504" height="618" viewBox="0 0 1504 618" font-family="Helvetica, Arial, sans-serif">
<rect width="100%" height="100%" fill="#ffffff"/>
<g fill="none" stroke="#1d2330" stroke-width="1.6" stroke-linejoin="round" stroke-linecap="round">
<polyline points="136.0,395.2 136.0,459.2 "/>
<polyline points="424.0,315.2 424.0,347.2 "/>
<polyline points="200.0,347.2 216.0,347.2 "/>
<polyline points="280.0,139.2 280.0,299.2 "/>
<polyline points="616.0,139.2 616.0,235.2 "/>
<polyline points="280.0,139.2 424.0,139.2 "/>
<polyline points="424.0,139.2 616.0,139.2 "/>
<polyline points="344.0,267.2 360.0,267.2 "/>
<polyline points="344.0,459.2 360.0,459.2 "/>
<polyline points="344.0,267.2 344.0,347.2 "/>
<polyline points="344.0,347.2 344.0,459.2 "/>
<polyline points="488.0,267.2 568.0,267.2 "/>
<polyline points="568.0,267.2 568.0,283.2 "/>
<polyline points="424.0,507.2 424.0,539.2 "/>
<polyline points="1368.0,395.2 1368.0,459.2 "/>
<polyline points="488.0,459.2 568.0,459.2 "/>
<polyline points="568.0,459.2 568.0,411.2 "/>
<polyline points="744.0,139.2 744.0,235.2 "/>
<polyline points="792.0,267.2 872.0,267.2 "/>
<polyline points="792.0,267.2 792.0,283.2 "/>
<polyline points="872.0,267.2 872.0,283.2 "/>
<polyline points="792.0,459.2 872.0,459.2 "/>
<polyline points="792.0,459.2 792.0,411.2 "/>
<polyline points="872.0,459.2 872.0,411.2 "/>
<polyline points="1000.0,347.2 1016.0,347.2 "/>
<polyline points="1144.0,347.2 1160.0,347.2 "/>
<polyline points="1080.0,395.2 1080.0,411.2 "/>
<polyline points="1288.0,347.2 1304.0,347.2 "/>
<polyline points="88.0,315.2 184.0,315.2 184.0,379.2 88.0,379.2 88.0,315.2 "/>
<polyline points="200.0,347.2 184.0,347.2 "/>
<text x="169.6" y="350.2" text-anchor="middle" font-size="9" fill="#1d2330" stroke="none">o</text>
<polyline points="136.0,395.2 136.0,379.2 "/>
<text x="136.0" y="371.0" text-anchor="middle" font-size="9" fill="#1d2330" stroke="none">w</text>
<text x="136.0" y="350.2" text-anchor="middle" font-size="11" fill="#1d2330" stroke="none">compiler</text>
<polyline points="376.0,59.2 472.0,59.2 472.0,123.2 376.0,123.2 376.0,59.2 "/>
<polyline points="424.0,139.2 424.0,123.2 "/>
<text x="424.0" y="115.0" text-anchor="middle" font-size="9" fill="#1d2330" stroke="none">t</text>
<text x="424.0" y="94.2" text-anchor="middle" font-size="11" fill="#1d2330" stroke="none">async_ctrl</text>
<polyline points="232.0,315.2 328.0,315.2 328.0,379.2 232.0,379.2 232.0,315.2 "/>
<polyline points="216.0,347.2 232.0,347.2 "/>
<text x="246.4" y="350.2" text-anchor="middle" font-size="9" fill="#1d2330" stroke="none">i</text>
<polyline points="344.0,347.2 328.0,347.2 "/>
<text x="313.6" y="350.2" text-anchor="middle" font-size="9" fill="#1d2330" stroke="none">o</text>
<polyline points="280.0,299.2 280.0,315.2 "/>
<text x="280.0" y="329.4" text-anchor="middle" font-size="9" fill="#1d2330" stroke="none">t</text>
<text x="280.0" y="350.2" text-anchor="middle" font-size="11" fill="#1d2330" stroke="none">pwm_x16</text>
<polyline points="376.0,235.2 472.0,235.2 472.0,299.2 376.0,299.2 376.0,235.2 "/>
<polyline points="360.0,267.2 376.0,267.2 "/>
<text x="390.4" y="270.2" text-anchor="middle" font-size="9" fill="#1d2330" stroke="none">i</text>
<polyline points="488.0,267.2 472.0,267.2 "/>
<text x="457.6" y="270.2" text-anchor="middle" font-size="9" fill="#1d2330" stroke="none">o</text>
<polyline points="424.0,315.2 424.0,299.2 "/>
<text x="424.0" y="291.0" text-anchor="middle" font-size="9" fill="#1d2330" stroke="none">w</text>
<text x="424.0" y="270.2" text-anchor="middle" font-size="11" fill="#1d2330" stroke="none">tile_16x17</text>
<polyline points="376.0,427.2 472.0,427.2 472.0,491.2 376.0,491.2 376.0,427.2 "/>
<polyline points="360.0,459.2 376.0,459.2 "/>
<text x="390.4" y="462.2" text-anchor="middle" font-size="9" fill="#1d2330" stroke="none">i</text>
<polyline points="488.0,459.2 472.0,459.2 "/>
<text x="457.6" y="462.2" text-anchor="middle" font-size="9" fill="#1d2330" stroke="none">o</text>
<polyline points="424.0,507.2 424.0,491.2 "/>
<text x="424.0" y="483.0" text-anchor="middle" font-size="9" fill="#1d2330" stroke="none">w</text>
<text x="424.0" y="462.2" text-anchor="middle" font-size="11" fill="#1d2330" stroke="none">lora</text>
<polyline points="696.0,59.2 792.0,59.2 792.0,123.2 696.0,123.2 696.0,59.2 "/>
<polyline points="744.0,139.2 744.0,123.2 "/>
<text x="744.0" y="115.0" text-anchor="middle" font-size="9" fill="#1d2330" stroke="none">r</text>
<text x="744.0" y="94.2" text-anchor="middle" font-size="11" fill="#1d2330" stroke="none">ladder_x4</text>
<polyline points="584.0,251.2 776.0,251.2 776.0,443.2 584.0,443.2 584.0,251.2 "/>
<polyline points="568.0,283.2 584.0,283.2 "/>
<text x="608.0" y="286.2" text-anchor="middle" font-size="9" fill="#1d2330" stroke="none">col</text>
<polyline points="568.0,411.2 584.0,411.2 "/>
<text x="612.8" y="414.2" text-anchor="middle" font-size="9" fill="#1d2330" stroke="none">colb</text>
<polyline points="792.0,283.2 776.0,283.2 "/>
<text x="747.2" y="286.2" text-anchor="middle" font-size="9" fill="#1d2330" stroke="none">code</text>
<polyline points="792.0,411.2 776.0,411.2 "/>
<text x="752.0" y="414.2" text-anchor="middle" font-size="9" fill="#1d2330" stroke="none">ctl</text>
<polyline points="616.0,235.2 616.0,251.2 "/>
<text x="616.0" y="265.4" text-anchor="middle" font-size="9" fill="#1d2330" stroke="none">tq</text>
<polyline points="744.0,235.2 744.0,251.2 "/>
<text x="744.0" y="265.4" text-anchor="middle" font-size="9" fill="#1d2330" stroke="none">ref</text>
<text x="680.0" y="350.2" text-anchor="middle" font-size="11" fill="#1d2330" stroke="none">integrator_conv_x17</text>
<polyline points="888.0,251.2 984.0,251.2 984.0,443.2 888.0,443.2 888.0,251.2 "/>
<polyline points="872.0,283.2 888.0,283.2 "/>
<text x="916.8" y="286.2" text-anchor="middle" font-size="9" fill="#1d2330" stroke="none">code</text>
<polyline points="872.0,411.2 888.0,411.2 "/>
<text x="912.0" y="414.2" text-anchor="middle" font-size="9" fill="#1d2330" stroke="none">ctl</text>
<polyline points="1000.0,347.2 984.0,347.2 "/>
<text x="969.6" y="350.2" text-anchor="middle" font-size="9" fill="#1d2330" stroke="none">o</text>
<text x="936.0" y="350.2" text-anchor="middle" font-size="11" fill="#1d2330" stroke="none">sequencer</text>
<polyline points="1032.0,315.2 1128.0,315.2 1128.0,379.2 1032.0,379.2 1032.0,315.2 "/>
<polyline points="1016.0,347.2 1032.0,347.2 "/>
<text x="1046.4" y="350.2" text-anchor="middle" font-size="9" fill="#1d2330" stroke="none">i</text>
<polyline points="1144.0,347.2 1128.0,347.2 "/>
<text x="1113.6" y="350.2" text-anchor="middle" font-size="9" fill="#1d2330" stroke="none">o</text>
<polyline points="1080.0,395.2 1080.0,379.2 "/>
<text x="1080.0" y="371.0" text-anchor="middle" font-size="9" fill="#1d2330" stroke="none">c</text>
<text x="1080.0" y="350.2" text-anchor="middle" font-size="11" fill="#1d2330" stroke="none">combine</text>
<polyline points="1032.0,427.2 1128.0,427.2 1128.0,491.2 1032.0,491.2 1032.0,427.2 "/>
<polyline points="1080.0,411.2 1080.0,427.2 "/>
<text x="1080.0" y="441.4" text-anchor="middle" font-size="9" fill="#1d2330" stroke="none">c</text>
<text x="1080.0" y="462.2" text-anchor="middle" font-size="11" fill="#1d2330" stroke="none">abft</text>
<polyline points="1176.0,315.2 1272.0,315.2 1272.0,379.2 1176.0,379.2 1176.0,315.2 "/>
<polyline points="1160.0,347.2 1176.0,347.2 "/>
<text x="1190.4" y="350.2" text-anchor="middle" font-size="9" fill="#1d2330" stroke="none">i</text>
<polyline points="1288.0,347.2 1272.0,347.2 "/>
<text x="1257.6" y="350.2" text-anchor="middle" font-size="9" fill="#1d2330" stroke="none">o</text>
<text x="1224.0" y="350.2" text-anchor="middle" font-size="11" fill="#1d2330" stroke="none">requant</text>
<polyline points="1320.0,315.2 1416.0,315.2 1416.0,379.2 1320.0,379.2 1320.0,315.2 "/>
<polyline points="1304.0,347.2 1320.0,347.2 "/>
<text x="1334.4" y="350.2" text-anchor="middle" font-size="9" fill="#1d2330" stroke="none">i</text>
<polyline points="1368.0,395.2 1368.0,379.2 "/>
<text x="1368.0" y="371.0" text-anchor="middle" font-size="9" fill="#1d2330" stroke="none">w</text>
<text x="1368.0" y="350.2" text-anchor="middle" font-size="11" fill="#1d2330" stroke="none">attention</text>
</g>
<circle cx="424.0" cy="139.2" r="3.8" fill="#1d2330" stroke="none"/>
<circle cx="344.0" cy="347.2" r="3.8" fill="#1d2330" stroke="none"/>
<text x="64.0" y="347.2" text-anchor="start" font-size="11" fill="#56607a" stroke="none">x1</text>
<text x="476.8" y="91.2" text-anchor="start" font-size="11" fill="#56607a" stroke="none">x2</text>
<text x="348.8" y="347.2" text-anchor="start" font-size="11" fill="#56607a" stroke="none">x3</text>
<text x="492.8" y="248.0" text-anchor="start" font-size="11" fill="#56607a" stroke="none">x4</text>
<text x="492.8" y="440.0" text-anchor="start" font-size="11" fill="#56607a" stroke="none">x5</text>
<text x="796.8" y="91.2" text-anchor="start" font-size="11" fill="#56607a" stroke="none">x6</text>
<text x="796.8" y="347.2" text-anchor="start" font-size="11" fill="#56607a" stroke="none">x7</text>
<text x="848.0" y="347.2" text-anchor="start" font-size="11" fill="#56607a" stroke="none">x8</text>
<text x="1148.8" y="347.2" text-anchor="start" font-size="11" fill="#56607a" stroke="none">x9</text>
<text x="1132.8" y="459.2" text-anchor="start" font-size="11" fill="#56607a" stroke="none">x10</text>
<text x="1292.8" y="347.2" text-anchor="start" font-size="11" fill="#56607a" stroke="none">x11</text>
<text x="1420.8" y="347.2" text-anchor="start" font-size="11" fill="#56607a" stroke="none">x12</text>
<text x="136.0" y="475.2" text-anchor="middle" font-size="12" fill="#2a62b8" stroke="none" font-style="italic">wcode</text>
<text x="424.0" y="363.2" text-anchor="middle" font-size="12" fill="#2a62b8" stroke="none" font-style="italic">wcode</text>
<text x="424.0" y="555.2" text-anchor="middle" font-size="12" fill="#2a62b8" stroke="none" font-style="italic">lora_w</text>
<text x="1368.0" y="475.2" text-anchor="middle" font-size="12" fill="#2a62b8" stroke="none" font-style="italic">lora_w</text>
<text x="40.0" y="612.4" text-anchor="start" font-size="12" fill="#1d2330" stroke="none"></text>
</svg>
