<svg xmlns="http://www.w3.org/2000/svg" width="506" height="676" viewBox="0 0 506 676" font-family="Helvetica, Arial, sans-serif">
<rect width="100%" height="100%" fill="#ffffff"/>
<g fill="none" stroke="#1d2330" stroke-width="1.6" stroke-linejoin="round" stroke-linecap="round">
<polyline points="156.8,395.2 156.8,491.2 "/>
<polyline points="348.8,475.2 348.8,491.2 "/>
<polyline points="156.8,491.2 220.8,491.2 "/>
<polyline points="220.8,491.2 348.8,491.2 "/>
<polyline points="92.8,523.2 188.8,523.2 "/>
<polyline points="220.8,555.2 220.8,587.2 "/>
<polyline points="156.8,315.2 156.8,331.2 "/>
<polyline points="92.8,363.2 124.8,363.2 "/>
<polyline points="348.8,395.2 348.8,411.2 "/>
<polyline points="380.8,443.2 412.8,443.2 "/>
<polyline points="156.8,235.2 156.8,251.2 "/>
<polyline points="188.8,123.2 316.8,123.2 "/>
<polyline points="92.8,283.2 124.8,283.2 "/>
<polyline points="284.8,363.2 316.8,363.2 "/>
<polyline points="348.8,235.2 348.8,283.2 "/>
<polyline points="412.8,283.2 348.8,283.2 "/>
<polyline points="348.8,283.2 348.8,331.2 "/>
<polyline points="92.8,203.2 124.8,203.2 "/>
<polyline points="284.8,203.2 316.8,203.2 "/>
<polyline points="156.8,155.2 156.8,171.2 "/>
<polyline points="156.8,59.2 156.8,91.2 "/>
<polyline points="348.8,59.2 348.8,91.2 "/>
<polyline points="156.8,59.2 220.8,59.2 "/>
<polyline points="220.8,59.2 348.8,59.2 "/>
<polyline points="348.8,155.2 348.8,171.2 "/>
<polyline points="220.8,491.2 220.8,510.4 216.0,510.4 "/>
<polyline points="220.8,555.2 220.8,536.0 216.0,536.0 "/>
<polyline points="216.0,507.2 216.0,539.2 "/>
<polyline points="209.6,510.4 209.6,536.0 "/>
<polyline points="188.8,523.2 209.6,523.2 "/>
<polyline points="156.8,331.2 156.8,350.4 152.0,350.4 "/>
<polyline points="156.8,395.2 156.8,376.0 152.0,376.0 "/>
<polyline points="152.0,347.2 152.0,379.2 "/>
<polyline points="145.6,350.4 145.6,376.0 "/>
<polyline points="124.8,363.2 145.6,363.2 "/>
<polyline points="348.8,411.2 348.8,430.4 353.6,430.4 "/>
<polyline points="348.8,475.2 348.8,456.0 353.6,456.0 "/>
<polyline points="353.6,427.2 353.6,459.2 "/>
<polyline points="360.0,430.4 360.0,456.0 "/>
<polyline points="380.8,443.2 360.0,443.2 "/>
<polyline points="156.8,251.2 156.8,270.4 152.0,270.4 "/>
<polyline points="156.8,315.2 156.8,296.0 152.0,296.0 "/>
<polyline points="152.0,267.2 152.0,299.2 "/>
<polyline points="145.6,270.4 145.6,296.0 "/>
<polyline points="124.8,283.2 145.6,283.2 "/>
<polyline points="348.8,331.2 348.8,350.4 344.0,350.4 "/>
<polyline points="348.8,395.2 348.8,376.0 344.0,376.0 "/>
<polyline points="344.0,347.2 344.0,379.2 "/>
<polyline points="337.6,350.4 337.6,376.0 "/>
<polyline points="316.8,363.2 337.6,363.2 "/>
<polyline points="156.8,235.2 156.8,216.0 152.0,216.0 "/>
<polyline points="156.8,171.2 156.8,190.4 152.0,190.4 "/>
<polyline points="152.0,219.2 152.0,187.2 "/>
<polyline points="145.6,216.0 145.6,190.4 "/>
<circle cx="142.4" cy="203.2" r="3.2" fill="#ffffff"/>
<polyline points="124.8,203.2 139.2,203.2 "/>
<polyline points="348.8,235.2 348.8,216.0 344.0,216.0 "/>
<polyline points="348.8,171.2 348.8,190.4 344.0,190.4 "/>
<polyline points="344.0,219.2 344.0,187.2 "/>
<polyline points="337.6,216.0 337.6,190.4 "/>
<circle cx="334.4" cy="203.2" r="3.2" fill="#ffffff"/>
<polyline points="316.8,203.2 331.2,203.2 "/>
<polyline points="156.8,155.2 156.8,136.0 161.6,136.0 "/>
<polyline points="156.8,91.2 156.8,110.4 161.6,110.4 "/>
<polyline points="161.6,139.2 161.6,107.2 "/>
<polyline points="168.0,136.0 168.0,110.4 "/>
<circle cx="171.2" cy="123.2" r="3.2" fill="#ffffff"/>
<polyline points="188.8,123.2 174.4,123.2 "/>
<polyline points="348.8,155.2 348.8,136.0 344.0,136.0 "/>
<polyline points="348.8,91.2 348.8,110.4 344.0,110.4 "/>
<polyline points="344.0,139.2 344.0,107.2 "/>
<polyline points="337.6,136.0 337.6,110.4 "/>
<circle cx="334.4" cy="123.2" r="3.2" fill="#ffffff"/>
<polyline points="316.8,123.2 331.2,123.2 "/>
<polyline points="206.4,587.2 235.2,587.2 "/>
<polyline points="211.2,592.0 230.4,592.0 "/>
<polyline points="217.6,596.8 224.0,596.8 "/>
<text x="234.8" y="597.2" text-anchor="start" font-size="11" fill="#56607a" stroke="none">vss</text>
<circle cx="92.8" cy="363.2" r="4.8" fill="#ffffff"/>
<text x="85.8" y="367.2" text-anchor="end" font-size="12" fill="#1d2330" stroke="none">inp</text>
<circle cx="412.8" cy="443.2" r="4.8" fill="#ffffff"/>
<text x="419.8" y="447.2" text-anchor="start" font-size="12" fill="#1d2330" stroke="none">inn</text>
<circle cx="412.8" cy="283.2" r="4.8" fill="#ffffff"/>
<text x="419.8" y="287.2" text-anchor="start" font-size="12" fill="#1d2330" stroke="none">out</text>
<polyline points="206.4,59.2 235.2,59.2 "/>
<text x="220.8" y="53.2" text-anchor="middle" font-size="12" fill="#1d2330" stroke="none">vdd</text>
</g>
<circle cx="220.8" cy="491.2" r="3.8" fill="#1d2330" stroke="none"/>
<circle cx="348.8" cy="283.2" r="3.8" fill="#1d2330" stroke="none"/>
<text x="225.6" y="523.2" text-anchor="start" font-size="11" fill="#56607a" stroke="none">xtail</text>
<text x="161.6" y="363.2" text-anchor="start" font-size="11" fill="#56607a" stroke="none">xin_p</text>
<text x="385.6" y="424.0" text-anchor="start" font-size="11" fill="#56607a" stroke="none">xin_n</text>
<text x="161.6" y="283.2" text-anchor="start" font-size="11" fill="#56607a" stroke="none">xnc_l</text>
<text x="353.6" y="363.2" text-anchor="start" font-size="11" fill="#56607a" stroke="none">xnc_r</text>
<text x="161.6" y="203.2" text-anchor="start" font-size="11" fill="#56607a" stroke="none">xpc_l</text>
<text x="353.6" y="203.2" text-anchor="start" font-size="11" fill="#56607a" stroke="none">xpc_r</text>
<text x="193.6" y="104.0" text-anchor="start" font-size="11" fill="#56607a" stroke="none">xpm_l</text>
<text x="353.6" y="123.2" text-anchor="start" font-size="11" fill="#56607a" stroke="none">xpm_r</text>
<text x="85.8" y="527.2" text-anchor="end" font-size="12" fill="#2a62b8" stroke="none" font-style="italic">vb_tail</text>
<text x="85.8" y="287.2" text-anchor="end" font-size="12" fill="#2a62b8" stroke="none" font-style="italic">vb_nc</text>
<text x="277.8" y="367.2" text-anchor="end" font-size="12" fill="#2a62b8" stroke="none" font-style="italic">vb_nc</text>
<text x="85.8" y="207.2" text-anchor="end" font-size="12" fill="#2a62b8" stroke="none" font-style="italic">vb_pc</text>
<text x="277.8" y="207.2" text-anchor="end" font-size="12" fill="#2a62b8" stroke="none" font-style="italic">vb_pc</text>
<text x="149.8" y="247.2" text-anchor="end" font-size="12" fill="#2a62b8" stroke="none" font-style="italic">x1</text>
<text x="252.8" y="117.2" text-anchor="middle" font-size="12" fill="#2a62b8" stroke="none" font-style="italic">x1</text>
<text x="40.0" y="670.0" text-anchor="start" font-size="12" fill="#1d2330" stroke="none"></text>
</svg>
